<mxfile host="app.diagrams.net" modified="2024-04-04T01:00:07.600Z" agent="Mozilla/5.0 (Windows NT 10.0; Win64; x64; rv:124.0) Gecko/20100101 Firefox/124.0" etag="oBb1sQKiGGuaTD6sNiEV" version="24.2.2" type="github">
  <diagram name="PÃ¡gina-1" id="ZbsNTVCxV9ipOTC_gdgk">
    <mxGraphModel dx="1434" dy="754" grid="1" gridSize="10" guides="1" tooltips="1" connect="1" arrows="1" fold="1" page="1" pageScale="1" pageWidth="827" pageHeight="1169" math="0" shadow="0">
      <root>
        <mxCell id="0" />
        <mxCell id="1" parent="0" />
        <mxCell id="mp7QcOimkzkrKGVoXUQb-1" value="inicio" style="rounded=0;whiteSpace=wrap;html=1;fontFamily=Comic Sans MS;fontSize=22;" vertex="1" parent="1">
          <mxGeometry x="295" y="10" width="120" height="60" as="geometry" />
        </mxCell>
        <mxCell id="mp7QcOimkzkrKGVoXUQb-2" value="&lt;div&gt;fim&lt;/div&gt;" style="rounded=0;whiteSpace=wrap;html=1;fontFamily=Comic Sans MS;fontSize=22;" vertex="1" parent="1">
          <mxGeometry x="470" y="1080" width="120" height="60" as="geometry" />
        </mxCell>
        <mxCell id="mp7QcOimkzkrKGVoXUQb-4" value="&lt;div align=&quot;left&quot;&gt;&lt;b&gt;&lt;font style=&quot;font-size: 15px;&quot;&gt;inteiro&lt;/font&gt;&lt;/b&gt;&lt;br&gt;&lt;/div&gt;&lt;div align=&quot;justify&quot;&gt;&amp;nbsp;&amp;nbsp; &amp;nbsp;numerotab &amp;lt; = 0&lt;br&gt;&amp;nbsp;&amp;nbsp; &amp;nbsp;termo &amp;lt; = 0&lt;br&gt;&amp;nbsp;&amp;nbsp; &amp;nbsp;contador &amp;lt; = 0&lt;/div&gt;" style="rounded=0;whiteSpace=wrap;html=1;" vertex="1" parent="1">
          <mxGeometry x="270" y="100" width="170" height="110" as="geometry" />
        </mxCell>
        <mxCell id="mp7QcOimkzkrKGVoXUQb-7" value="&lt;div&gt;&lt;b&gt;ola jovem vamos calcular!&lt;/b&gt;&lt;/div&gt;&lt;div&gt;&lt;b&gt;Eu sou bom em tabuadas!&lt;/b&gt;&lt;br&gt;&lt;/div&gt;" style="shape=document;whiteSpace=wrap;html=1;boundedLbl=1;" vertex="1" parent="1">
          <mxGeometry x="295" y="260" width="120" height="100" as="geometry" />
        </mxCell>
        <mxCell id="mp7QcOimkzkrKGVoXUQb-8" value="" style="endArrow=classic;html=1;rounded=0;exitX=0.5;exitY=1;exitDx=0;exitDy=0;entryX=0.5;entryY=0;entryDx=0;entryDy=0;" edge="1" parent="1" source="mp7QcOimkzkrKGVoXUQb-1" target="mp7QcOimkzkrKGVoXUQb-4">
          <mxGeometry width="50" height="50" relative="1" as="geometry">
            <mxPoint x="390" y="410" as="sourcePoint" />
            <mxPoint x="440" y="360" as="targetPoint" />
          </mxGeometry>
        </mxCell>
        <mxCell id="mp7QcOimkzkrKGVoXUQb-9" value="" style="endArrow=classic;html=1;rounded=0;exitX=0.5;exitY=1;exitDx=0;exitDy=0;entryX=0.5;entryY=0;entryDx=0;entryDy=0;" edge="1" parent="1" source="mp7QcOimkzkrKGVoXUQb-4" target="mp7QcOimkzkrKGVoXUQb-7">
          <mxGeometry width="50" height="50" relative="1" as="geometry">
            <mxPoint x="390" y="410" as="sourcePoint" />
            <mxPoint x="440" y="360" as="targetPoint" />
          </mxGeometry>
        </mxCell>
        <mxCell id="mp7QcOimkzkrKGVoXUQb-11" value="&lt;div align=&quot;justify&quot;&gt;&lt;b&gt;digite o numero que deseja tabular :&lt;/b&gt;&lt;/div&gt;&lt;div align=&quot;justify&quot;&gt;&lt;b&gt;(numero tab)&lt;br&gt;&lt;/b&gt;&lt;/div&gt;" style="shape=parallelogram;perimeter=parallelogramPerimeter;whiteSpace=wrap;html=1;fixedSize=1;" vertex="1" parent="1">
          <mxGeometry x="240" y="390" width="230" height="90" as="geometry" />
        </mxCell>
        <mxCell id="mp7QcOimkzkrKGVoXUQb-13" value="&lt;b&gt;&lt;font style=&quot;font-size: 18px;&quot;&gt;(contador &amp;lt; = 10)?&lt;/font&gt;&lt;/b&gt;" style="rhombus;whiteSpace=wrap;html=1;" vertex="1" parent="1">
          <mxGeometry x="245" y="525" width="220" height="120" as="geometry" />
        </mxCell>
        <mxCell id="mp7QcOimkzkrKGVoXUQb-14" value="" style="endArrow=classic;html=1;rounded=0;exitX=0.508;exitY=0.86;exitDx=0;exitDy=0;exitPerimeter=0;entryX=0.5;entryY=0;entryDx=0;entryDy=0;" edge="1" parent="1" source="mp7QcOimkzkrKGVoXUQb-7" target="mp7QcOimkzkrKGVoXUQb-11">
          <mxGeometry width="50" height="50" relative="1" as="geometry">
            <mxPoint x="390" y="410" as="sourcePoint" />
            <mxPoint x="440" y="360" as="targetPoint" />
          </mxGeometry>
        </mxCell>
        <mxCell id="mp7QcOimkzkrKGVoXUQb-15" value="" style="endArrow=classic;html=1;rounded=0;exitX=0.5;exitY=1;exitDx=0;exitDy=0;entryX=0.5;entryY=0;entryDx=0;entryDy=0;" edge="1" parent="1" source="mp7QcOimkzkrKGVoXUQb-11" target="mp7QcOimkzkrKGVoXUQb-13">
          <mxGeometry width="50" height="50" relative="1" as="geometry">
            <mxPoint x="390" y="410" as="sourcePoint" />
            <mxPoint x="440" y="360" as="targetPoint" />
          </mxGeometry>
        </mxCell>
        <mxCell id="mp7QcOimkzkrKGVoXUQb-17" value="" style="endArrow=classic;html=1;rounded=0;exitX=1;exitY=0.5;exitDx=0;exitDy=0;" edge="1" parent="1" source="mp7QcOimkzkrKGVoXUQb-13">
          <mxGeometry width="50" height="50" relative="1" as="geometry">
            <mxPoint x="390" y="410" as="sourcePoint" />
            <mxPoint x="580" y="585" as="targetPoint" />
          </mxGeometry>
        </mxCell>
        <mxCell id="mp7QcOimkzkrKGVoXUQb-20" value="" style="endArrow=classic;html=1;rounded=0;exitX=0;exitY=0.5;exitDx=0;exitDy=0;" edge="1" parent="1" source="mp7QcOimkzkrKGVoXUQb-13">
          <mxGeometry width="50" height="50" relative="1" as="geometry">
            <mxPoint x="390" y="410" as="sourcePoint" />
            <mxPoint x="170" y="585" as="targetPoint" />
          </mxGeometry>
        </mxCell>
        <mxCell id="mp7QcOimkzkrKGVoXUQb-23" style="edgeStyle=orthogonalEdgeStyle;rounded=0;orthogonalLoop=1;jettySize=auto;html=1;entryX=0.5;entryY=0;entryDx=0;entryDy=0;" edge="1" parent="1" source="mp7QcOimkzkrKGVoXUQb-21" target="mp7QcOimkzkrKGVoXUQb-2">
          <mxGeometry relative="1" as="geometry">
            <mxPoint x="580" y="730" as="targetPoint" />
          </mxGeometry>
        </mxCell>
        <mxCell id="mp7QcOimkzkrKGVoXUQb-21" value="&lt;b&gt;&lt;font style=&quot;font-size: 19px;&quot;&gt;nao&lt;/font&gt;&lt;/b&gt;" style="text;html=1;align=center;verticalAlign=middle;resizable=0;points=[];autosize=1;strokeColor=none;fillColor=none;" vertex="1" parent="1">
          <mxGeometry x="580" y="565" width="60" height="40" as="geometry" />
        </mxCell>
        <mxCell id="mp7QcOimkzkrKGVoXUQb-22" value="&lt;font style=&quot;font-size: 20px;&quot;&gt;&lt;b&gt;sim&lt;/b&gt;&lt;/font&gt;" style="text;html=1;align=center;verticalAlign=middle;resizable=0;points=[];autosize=1;strokeColor=none;fillColor=none;" vertex="1" parent="1">
          <mxGeometry x="100" y="563" width="60" height="40" as="geometry" />
        </mxCell>
        <mxCell id="mp7QcOimkzkrKGVoXUQb-24" value="&lt;div align=&quot;left&quot;&gt;&lt;b&gt;&amp;nbsp;&amp;nbsp;&amp;nbsp;&amp;nbsp;&amp;nbsp;&amp;nbsp;&amp;nbsp; contador &amp;lt; = contador + 1&lt;br&gt;&amp;nbsp;&amp;nbsp; &amp;nbsp;&amp;nbsp;&amp;nbsp;&amp;nbsp; termo &amp;lt; = termo + numerotab&lt;br&gt;&lt;br&gt;&lt;/b&gt;&lt;/div&gt;" style="rounded=0;whiteSpace=wrap;html=1;align=left;" vertex="1" parent="1">
          <mxGeometry x="235" y="720" width="240" height="70" as="geometry" />
        </mxCell>
        <mxCell id="mp7QcOimkzkrKGVoXUQb-25" value="" style="endArrow=classic;html=1;rounded=0;exitX=0.5;exitY=1;exitDx=0;exitDy=0;entryX=0.5;entryY=0;entryDx=0;entryDy=0;" edge="1" parent="1" source="mp7QcOimkzkrKGVoXUQb-13" target="mp7QcOimkzkrKGVoXUQb-24">
          <mxGeometry width="50" height="50" relative="1" as="geometry">
            <mxPoint x="390" y="560" as="sourcePoint" />
            <mxPoint x="440" y="510" as="targetPoint" />
          </mxGeometry>
        </mxCell>
        <mxCell id="mp7QcOimkzkrKGVoXUQb-27" value="&lt;b&gt;&amp;nbsp;&amp;nbsp; &amp;nbsp;&amp;nbsp;&amp;nbsp;&amp;nbsp; escreva(termo)&lt;/b&gt;" style="shape=document;whiteSpace=wrap;html=1;boundedLbl=1;" vertex="1" parent="1">
          <mxGeometry x="305" y="830" width="100" height="100" as="geometry" />
        </mxCell>
        <mxCell id="mp7QcOimkzkrKGVoXUQb-28" value="" style="endArrow=classic;html=1;rounded=0;exitX=0.5;exitY=1;exitDx=0;exitDy=0;entryX=0.5;entryY=0;entryDx=0;entryDy=0;" edge="1" parent="1" source="mp7QcOimkzkrKGVoXUQb-24" target="mp7QcOimkzkrKGVoXUQb-27">
          <mxGeometry width="50" height="50" relative="1" as="geometry">
            <mxPoint x="390" y="680" as="sourcePoint" />
            <mxPoint x="440" y="630" as="targetPoint" />
          </mxGeometry>
        </mxCell>
      </root>
    </mxGraphModel>
  </diagram>
</mxfile>
